<?xml version="1.0" encoding="utf-8"?>
<svg xmlns="http://www.w3.org/2000/svg" viewBox="0 0 100 100">
  <defs>
    <linearGradient id="canvaGradient" x1="0%" y1="0%" x2="100%" y2="100%">
      <stop offset="0%" style="stop-color:#6200EA"/>
      <stop offset="100%" style="stop-color:#00C4CC"/>
    </linearGradient>
  </defs>
  <circle cx="50" cy="50" r="50" fill="url(#canvaGradient)"/>
  <path d="M44.5 65.8c-1.9 0-3.7-0.3-5.4-1s-3.2-1.6-4.4-2.8c-1.2-1.2-2.2-2.7-2.9-4.4s-1.1-3.6-1.1-5.6c0-2.1 0.4-3.9 1.1-5.6s1.7-3.1 2.9-4.3c1.2-1.2 2.7-2.1 4.4-2.8c1.7-0.7 3.5-1 5.4-1 2 0 3.8 0.3 5.5 1s3.2 1.6 4.4 2.8c1.2 1.2 2.2 2.7 2.9 4.4s1.1 3.6 1.1 5.6c0 2-0.4 3.9-1.1 5.6s-1.7 3.2-2.9 4.4c-1.2 1.2-2.7 2.2-4.4 2.8C48.3 65.4 46.5 65.8 44.5 65.8zM44.5 44.8c-1.9 0-3.5 0.7-4.8 2.2-1.3 1.5-1.9 3.5-1.9 6.1 0 2.6 0.6 4.6 1.9 6.1 1.3 1.5 2.9 2.2 4.8 2.2 2 0 3.6-0.7 4.9-2.2 1.2-1.5 1.9-3.5 1.9-6.1 0-2.6-0.6-4.6-1.9-6.1C48.1 45.5 46.5 44.8 44.5 44.8z" fill="#FFFFFF"/>
  <path d="M66.3 65.3h-5.7V41.7c0-0.4 0.1-0.7 0.3-0.9 0.2-0.2 0.5-0.3 0.9-0.3h5c0.4 0 0.6 0.1 0.9 0.3 0.2 0.2 0.3 0.5 0.3 0.9v2.3h0.1c0.6-1.2 1.6-2.1 3-2.8s2.9-1 4.5-1c0.3 0 0.5 0.1 0.7 0.3 0.2 0.2 0.3 0.4 0.3 0.7v4.9c0 0.3-0.1 0.5-0.3 0.7-0.2 0.2-0.4 0.3-0.7 0.3-1.1 0-2.1 0.1-3.1 0.4-0.9 0.3-1.7 0.7-2.4 1.2-0.7 0.5-1.2 1.2-1.6 2.1-0.4 0.8-0.6 1.8-0.6 3v9.7c0 0.3-0.1 0.6-0.3 0.8C66.9 65.2 66.7 65.3 66.3 65.3z" fill="#FFFFFF"/>
</svg>
</svg>
