<?xml version="1.0" encoding="utf-8"?>
<svg xmlns="http://www.w3.org/2000/svg" viewBox="0 0 512 512">
  <rect width="512" height="512" fill="#18254E"/>
  <path fill="#FFFFFF" d="M256 120c-62 0-112 50-112 112s50 112 112 112 112-50 112-112-50-112-112-112zm0 190c-43 0-78-35-78-78s35-78 78-78 78 35 78 78-35 78-78 78z"/>
  <g fill="#FFFFFF">
    <path d="M102 290c-2.2 0-4-1.8-4-4v-42c0-11 9-20 20-20h10c11 0 20 9 20 20v42c0 2.2-1.8 4-4 4h-8c-2.2 0-4-1.8-4-4v-42c0-2.2-1.8-4-4-4h-10c-2.2 0-4 1.8-4 4v42c0 2.2-1.8 4-4 4h-8z"/>
    <path d="M158 290c-2.2 0-4-1.8-4-4v-62c0-2.2 1.8-4 4-4h14c9.9 0 18 8.1 18 18 0 6.4-3.4 12-8.4 15.1 5 3.2 8.4 8.8 8.4 15.2 0 9.9-8.1 17.7-18 17.7h-14zm12-54h-4v12h4c3.3 0 6-2.7 6-6s-2.7-6-6-6zm0 24h-4v14h4c3.9 0 7-3.1 7-7s-3.1-7-7-7z"/>
    <path d="M198 290c-2.2 0-4-1.8-4-4v-62c0-2.2 1.8-4 4-4h14c13.2 0 24 10.8 24 24v22c0 13.2-10.8 24-24 24h-14zm12-54h-4v38h4c5.5 0 10-4.5 10-10v-18c0-5.5-4.5-10-10-10z"/>
    <path d="M252 290c-2.2 0-4-1.8-4-4v-62c0-2.2 1.8-4 4-4h8c2.2 0 4 1.8 4 4v62c0 2.2-1.8 4-4 4h-8z"/>
    <path d="M296 290c-2.2 0-4-1.8-4-4v-42c0-11 9-20 20-20h10c11 0 20 9 20 20v42c0 2.2-1.8 4-4 4h-8c-2.2 0-4-1.8-4-4v-42c0-2.2-1.8-4-4-4h-10c-2.2 0-4 1.8-4 4v42c0 2.2-1.8 4-4 4h-8z"/>
    <path d="M352 290c-2.2 0-4-1.8-4-4v-62c0-2.2 1.8-4 4-4h8c1.3 0 2.5 0.6 3.2 1.6l20 30v-27.6c0-2.2 1.8-4 4-4h8c2.2 0 4 1.8 4 4v62c0 2.2-1.8 4-4 4h-8c-1.3 0-2.5-0.6-3.2-1.6l-20-30V286c0 2.2-1.8 4-4 4h-8z"/>
    <path d="M412 290c-2.2 0-4-1.8-4-4v-62c0-2.2 1.8-4 4-4h28c2.2 0 4 1.8 4 4v8c0 2.2-1.8 4-4 4h-16v12h14c2.2 0 4 1.8 4 4v6c0 2.2-1.8 4-4 4h-14v14h16c2.2 0 4 1.8 4 4v6c0 2.2-1.8 4-4 4h-28z"/>
  </g>
</svg>
