<?xml version="1.0" encoding="utf-8"?>
<svg xmlns="http://www.w3.org/2000/svg" viewBox="0 0 100 100">
  <rect width="100" height="100" rx="10" fill="#001833"/>
  <g fill="#31A8FF">
    <path d="M38.2 68.5V36c0-0.3 0.1-0.5 0.4-0.5h12c3.5 0 6.1 0.8 7.9 2.3 1.8 1.5 2.7 3.8 2.7 6.8 0 1.5-0.3 2.9-0.8 4-0.6 1.2-1.3 2.1-2.3 2.9-1 0.7-2.2 1.3-3.5 1.7-1.3 0.4-2.7 0.6-4.2 0.6h-4v14.7c0 0.4-0.2 0.6-0.6 0.6h-7c-0.4 0-0.6-0.2-0.6-0.6zm8.2-35.1v11h4c1.3 0 2.4-0.4 3.2-1.2 0.9-0.8 1.3-2 1.3-3.5 0-1.6-0.4-2.8-1.3-3.6-0.8-0.8-2-1.2-3.6-1.2h-3.6z"/>
    <path d="M74.3 69.2c-1.8 0-3.5-0.3-5.1-0.9-1.6-0.6-2.9-1.4-4-2.5-1.1-1.1-2-2.4-2.6-3.9-0.6-1.5-0.9-3.2-0.9-5.1 0-1.8 0.3-3.5 0.9-5 0.6-1.5 1.5-2.8 2.6-3.9 1.1-1.1 2.5-1.9 4-2.5 1.6-0.6 3.3-0.9 5.1-0.9 1.8 0 3.5 0.3 5.1 0.9 1.6 0.6 2.9 1.4 4 2.5 1.1 1.1 2 2.4 2.6 3.9 0.6 1.5 0.9 3.2 0.9 5 0 1.8-0.3 3.5-0.9 5.1-0.6 1.5-1.5 2.8-2.6 3.9-1.1 1.1-2.5 1.9-4 2.5C77.8 68.9 76.1 69.2 74.3 69.2zM74.3 51.7c-1.5 0-2.7 0.5-3.6 1.6-0.9 1.1-1.4 2.6-1.4 4.4 0 1.9 0.5 3.4 1.4 4.5 0.9 1.1 2.1 1.6 3.6 1.6 1.5 0 2.7-0.5 3.6-1.6 0.9-1.1 1.4-2.6 1.4-4.5 0-1.9-0.5-3.4-1.4-4.4C77 52.2 75.8 51.7 74.3 51.7z"/>  </g>
</svg>
