<svg width="363" height="289" viewBox="0 0 363 289" fill="none" xmlns="http://www.w3.org/2000/svg">
<path d="M40.0096 37.7692C39.3263 18.1191 54.6341 0 75.328 0H287.371C308.065 0 323.373 18.1191 322.689 37.7692C322.032 56.6438 322.885 81.0947 329.038 101.03C335.212 121.029 345.621 133.667 362.67 135.293V153.709C345.621 155.336 335.212 167.974 329.038 187.973C322.885 207.908 322.032 232.359 322.689 251.234C323.373 270.884 308.065 289 287.371 289H75.328C54.6341 289 39.3263 270.881 40.0096 251.234C40.667 232.359 39.8135 207.908 33.6576 187.973C27.4871 167.976 17.0494 155.336 0 153.709V135.293C17.0494 133.67 27.4871 121.029 33.6576 101.03C39.8135 81.0947 40.6641 56.6438 40.0096 37.7692Z" fill="url(#paint0_linear_3_10)"/>
<g filter="url(#filter0_d_3_10)">
<path d="M190.306 222.374C223.808 222.374 243.996 205.971 243.996 178.915C243.996 158.463 229.591 143.657 208.202 141.313V140.461C223.917 137.905 236.248 123.312 236.248 107.015C236.248 83.7936 217.915 68.6672 189.979 68.6672H127.122V222.374H190.306ZM151.566 88.1604H184.086C201.765 88.1604 211.804 96.0427 211.804 110.316C211.804 125.549 200.128 134.07 178.957 134.07H151.566V88.1604ZM151.566 202.881V152.285H183.867C207.002 152.285 219.006 160.806 219.006 177.423C219.006 194.04 207.33 202.881 185.286 202.881H151.566Z" fill="url(#paint1_linear_3_10)"/>
</g>
<defs>
<filter id="filter0_d_3_10" x="115.788" y="60.1673" width="139.541" height="176.374" filterUnits="userSpaceOnUse" color-interpolation-filters="sRGB">
<feFlood flood-opacity="0" result="BackgroundImageFix"/>
<feColorMatrix in="SourceAlpha" type="matrix" values="0 0 0 0 0 0 0 0 0 0 0 0 0 0 0 0 0 0 127 0" result="hardAlpha"/>
<feOffset dy="2.83331"/>
<feGaussianBlur stdDeviation="5.66663"/>
<feColorMatrix type="matrix" values="0 0 0 0 0 0 0 0 0 0 0 0 0 0 0 0 0 0 0.15 0"/>
<feBlend mode="normal" in2="BackgroundImageFix" result="effect1_dropShadow_3_10"/>
<feBlend mode="normal" in="SourceGraphic" in2="effect1_dropShadow_3_10" result="shape"/>
</filter>
<linearGradient id="paint0_linear_3_10" x1="53.8918" y1="7.64853" x2="370.799" y2="259.213" gradientUnits="userSpaceOnUse">
<stop stop-color="#9013FE"/>
<stop offset="1" stop-color="#6610F2"/>
</linearGradient>
<linearGradient id="paint1_linear_3_10" x1="138.18" y1="78.7822" x2="209.013" y2="198.582" gradientUnits="userSpaceOnUse">
<stop stop-color="white"/>
<stop offset="1" stop-color="#F1E5FC"/>
</linearGradient>
</defs>
</svg>
