<svg width="256" height="290" viewBox="0 0 256 290" fill="none" xmlns="http://www.w3.org/2000/svg">
<path d="M127.399 289.322L23.217 260.4L0 0H255.11L231.869 260.36L127.399 289.322Z" fill="#264DE4"/>
<path d="M211.972 243.781L231.832 21.291H127.555V267.184L211.972 243.781Z" fill="#2965F1"/>
<path d="M53.224 117.87L56.086 149.807H127.555V117.87H53.224ZM47.472 53.229L50.375 85.166H127.555V53.229H47.472ZM127.555 200.814L127.415 200.851L91.847 191.247L89.573 165.776H57.513L61.987 215.922L127.408 234.082L127.555 234.042V200.814Z" fill="#EBEBEB"/>
<path d="M201.682 117.87L207.447 53.229H127.445V85.166H172.447L169.541 117.87H127.445V149.807H166.772L163.064 191.227L127.444 200.841V234.067L192.917 215.922L193.397 210.526L200.903 126.446L201.682 117.87Z" fill="white"/>
</svg>
