<svg width="193" height="289" viewBox="0 0 193 289" fill="none" xmlns="http://www.w3.org/2000/svg">
<path d="M48.1667 0H96.3333V96.3333H48.1667C35.3921 96.3333 23.1407 91.2587 14.1077 82.2256C5.07469 73.1926 0 60.9413 0 48.1667C0 35.3921 5.07469 23.1407 14.1077 14.1077C23.1407 5.07469 35.3921 0 48.1667 0Z" fill="#F4511E"/>
<path d="M144.5 96.3333H96.3333V0H144.5C157.275 0 169.526 5.07469 178.559 14.1077C187.592 23.1407 192.667 35.3921 192.667 48.1667C192.667 60.9413 187.592 73.1926 178.559 82.2256C169.526 91.2587 157.275 96.3333 144.5 96.3333Z" fill="#FF8A65"/>
<path d="M96.3332 144.5C96.3332 171.102 117.898 192.667 144.5 192.667C171.102 192.667 192.667 171.102 192.667 144.5C192.667 117.898 171.102 96.3334 144.5 96.3334C117.898 96.3334 96.3332 117.898 96.3332 144.5Z" fill="#29B6F6"/>
<path d="M48.1667 96.3333H96.3333V192.667H48.1667C35.3921 192.667 23.1407 187.592 14.1077 178.559C5.07469 169.526 0 157.275 0 144.5C0 131.725 5.07469 119.474 14.1077 110.441C23.1407 101.408 35.3921 96.3333 48.1667 96.3333Z" fill="#7C4DFF"/>
<path d="M48.1667 192.667H96.3333V240.833C96.3333 253.608 91.2587 265.859 82.2256 274.892C73.1926 283.925 60.9413 289 48.1667 289C35.3921 289 23.1407 283.925 14.1077 274.892C5.07469 265.859 0 253.608 0 240.833C0 228.059 5.07469 215.807 14.1077 206.774C23.1407 197.741 35.3921 192.667 48.1667 192.667Z" fill="#00E676"/>
</svg>
