<svg width="309" height="289" viewBox="0 0 309 289" fill="none" xmlns="http://www.w3.org/2000/svg">
<path d="M307.913 74.519C307.836 74.23 307.691 73.9795 307.585 73.7001C307.404 73.1809 307.178 72.6781 306.911 72.1973C306.434 71.5057 305.913 70.846 305.35 70.2225C305.081 69.9754 304.798 69.7438 304.503 69.5289C304.248 69.2964 303.981 69.0777 303.703 68.8738L303.279 68.6811L302.942 68.4499L245.142 39.5497C243.804 38.8815 242.33 38.5337 240.835 38.5337C239.341 38.5337 237.866 38.8815 236.529 39.5497L178.729 68.4499L178.392 68.6811L177.968 68.8738C177.69 69.0777 177.423 69.2964 177.168 69.5289C176.455 70.0208 175.843 70.6455 175.367 71.3689C175.147 71.6338 174.941 71.9103 174.75 72.1973C174.486 72.6784 174.264 73.1812 174.085 73.7001C173.989 73.9795 173.835 74.23 173.758 74.519C173.525 75.3501 173.405 76.2088 173.402 77.0718V128.919L134.868 148.186V38.5382C134.864 37.6751 134.744 36.8164 134.511 35.9853C134.434 35.6963 134.29 35.4458 134.184 35.1665C134.002 34.6472 133.777 34.1444 133.51 33.6637C133.322 33.3769 133.12 33.1004 132.903 32.8352C132.426 32.1118 131.814 31.4871 131.101 30.9952C130.847 30.7627 130.58 30.544 130.302 30.3401L129.878 30.1475L129.541 29.9163L71.7401 1.016C70.4029 0.347839 68.9287 0 67.4339 0C65.9392 0 64.4649 0.347839 63.1278 1.016L5.32728 29.9163L4.99011 30.1475L4.56624 30.3401C4.28818 30.544 4.02128 30.7627 3.76667 30.9952C3.47116 31.2101 3.18812 31.4417 2.91893 31.6888C2.56855 32.0454 2.24647 32.4286 1.95558 32.8352C1.7387 33.1004 1.53611 33.3769 1.34868 33.6637C1.08471 34.1447 0.862334 34.6475 0.683973 35.1665C0.587639 35.4458 0.433504 35.6963 0.356436 35.9853C0.123802 36.8164 0.00391684 37.6751 0 38.5382L0 221.573C0.00095514 223.362 0.499811 225.115 1.4407 226.636C2.38159 228.157 3.72735 229.386 5.32728 230.185L63.1278 259.086L120.928 287.986C121.063 288.053 121.217 288.034 121.371 288.092C122.572 288.689 123.894 289 125.234 289C126.575 289 127.897 288.689 129.097 288.092C129.242 288.034 129.406 288.053 129.541 287.996L245.142 230.195C246.743 229.395 248.09 228.164 249.031 226.641C249.972 225.118 250.47 223.363 250.469 221.573V169.726L302.942 143.485C304.542 142.685 305.888 141.456 306.829 139.935C307.77 138.414 308.268 136.661 308.269 134.872V77.0718C308.265 76.2088 308.146 75.3501 307.913 74.519ZM88.9743 192.673L129.541 172.385H129.55L183.035 145.643L219.295 163.773L125.234 210.803L88.9743 192.673ZM231.202 111.926V148.186L192.668 128.919V92.6587L231.202 111.926ZM240.835 58.9417L277.096 77.0718L240.835 95.2019L204.575 77.0718L240.835 58.9417ZM77.0673 177.086V73.3919L115.601 54.125V157.819L77.0673 177.086ZM67.4339 20.4081L103.694 38.5382L67.4339 56.6683L31.1737 38.5382L67.4339 20.4081ZM19.2668 54.125L57.8005 73.3919V234.886L19.2668 215.62V54.125ZM77.0673 208.26L115.601 227.527V263.787L77.0673 244.52V208.26ZM231.202 215.62L134.868 263.787V227.527L231.202 179.359V215.62ZM289.003 128.919L250.469 148.186V111.926L289.003 92.6587V128.919Z" fill="#FF5252"/>
</svg>
