<svg width="576" height="292" viewBox="0 0 576 292" fill="none" xmlns="http://www.w3.org/2000/svg">
<path d="M287.987 291.827C128.874 291.827 0 226.55 0 145.913C0 65.277 128.874 0 287.987 0C447.1 0 575.974 65.277 575.974 145.913C575.974 226.55 447.1 291.827 287.987 291.827ZM163.433 101.035C176.392 101.035 185.272 103.435 189.591 108.475C193.911 113.275 194.871 121.914 192.711 133.194C190.311 145.913 185.752 154.073 178.792 159.353C172.072 164.632 161.753 167.272 147.833 167.272H126.954L139.674 101.035H163.433ZM79.4364 234.229H113.995L122.154 192.231H151.673C164.632 192.231 175.192 190.791 183.592 188.151C191.991 185.272 199.671 180.712 206.631 174.232C212.39 168.952 216.95 163.193 220.55 156.713C224.15 150.473 226.79 143.273 227.99 135.594C231.829 116.875 229.19 102.235 220.07 91.9158C210.71 81.3563 196.311 76.3165 176.392 76.3165H110.155L79.4364 234.229ZM253.428 34.3184L222.71 192.231H256.788L274.547 101.755H301.906C310.546 101.755 316.306 103.195 318.945 106.075C321.585 108.955 322.065 114.235 320.625 121.914L306.946 192.231H341.744L355.904 118.555C359.024 103.675 356.624 92.8758 349.424 85.9161C342.224 79.4364 329.025 76.3165 309.826 76.3165H279.347L287.987 34.3184H253.428ZM431.98 101.035C445.18 101.035 453.819 103.435 458.139 108.475C462.459 113.275 463.419 121.914 461.259 133.194C458.859 145.913 454.299 154.073 447.58 159.353C440.62 164.632 430.3 167.272 416.381 167.272H395.982L407.981 101.035H431.98ZM347.984 234.229H382.543L390.702 192.231H419.981C433.18 192.231 443.98 190.791 452.379 188.151C460.779 185.272 467.979 180.712 475.178 174.232C480.938 168.952 485.738 163.193 489.098 156.713C492.697 150.473 495.337 143.273 496.777 135.594C500.377 116.875 497.737 102.235 488.618 91.9158C479.978 81.3563 464.859 76.3165 444.94 76.3165H378.943L347.984 234.229Z" fill="#1E88E5"/>
</svg>
