<svg width="300" height="292" viewBox="0 0 300 292" fill="none" xmlns="http://www.w3.org/2000/svg">
<path d="M53.4964 0H246.914C276.24 0 299.949 23.7086 299.949 53.035V238.965C299.949 268.291 276.24 292 246.914 292H53.4964C24.17 292 0.461426 268.291 0.461426 238.965V53.035C0.461426 23.7086 24.17 0 53.4964 0Z" fill="#001E36"/>
<path d="M107.78 74.2469C104.036 74.2469 100.293 74.2469 96.4253 74.3732C92.5554 74.4972 88.9358 74.4972 85.5665 74.6236C82.1973 74.7476 79.0784 74.7476 76.0836 74.8716C73.2127 74.9956 71.2169 74.9956 69.0947 74.9956C68.222 74.9956 67.8477 75.494 67.8477 76.369V204.774C67.8477 205.897 68.346 206.398 69.3451 206.398H93.5544C94.4271 206.272 95.0519 205.523 94.9255 204.65V164.594C97.2957 164.594 99.0435 164.594 100.293 164.718C101.54 164.842 103.536 164.842 106.531 164.842C116.765 164.842 126.124 163.719 134.608 160.6C142.719 157.605 149.708 152.364 154.699 145.375C159.69 138.387 162.186 129.527 162.186 118.796C162.186 113.18 161.189 107.815 159.318 102.574C157.334 97.2346 154.227 92.3833 150.207 88.3485C145.461 83.7384 139.749 80.2425 133.484 78.1145C126.496 75.494 118.012 74.2469 107.78 74.2469ZM110.564 98.8259C115.01 98.9101 119.338 99.6869 123.377 101.325C126.996 102.698 129.991 105.195 132.113 108.438C134.104 111.794 135.099 115.646 134.984 119.547C134.984 125.036 133.735 129.28 131.114 132.399C128.367 135.518 124.874 137.89 120.883 139.013C116.264 140.511 111.397 141.257 106.531 141.257H99.9162C98.4187 141.257 96.7996 141.133 95.0519 141.009V99.0809C95.9246 98.9546 97.6724 98.8306 100.169 98.9569C102.539 98.8306 105.408 98.8306 108.653 98.8306C109.292 98.815 109.93 98.8134 110.564 98.8259ZM215.221 105.197C206.36 105.197 198.997 106.568 193.134 109.563C187.769 112.059 183.15 116.051 180.031 121.042C177.287 125.66 175.787 130.775 175.787 136.142C175.68 140.557 176.667 144.929 178.658 148.871C180.992 153.067 184.232 156.691 188.143 159.477C193.633 163.231 199.589 166.252 205.862 168.461C211.976 170.831 216.094 172.703 218.092 174.325C220.088 175.949 221.087 177.57 221.087 179.318C221.087 181.564 219.713 183.686 217.718 184.559C215.471 185.682 212.102 186.307 207.36 186.307C202.369 186.307 197.376 185.682 192.633 184.435C187.188 183.219 181.967 181.156 177.16 178.321C176.786 178.071 176.412 177.947 176.037 178.197C175.663 178.445 175.539 178.943 175.539 179.318V201.031C175.415 202.03 176.037 202.902 176.912 203.401C180.959 205.291 185.239 206.634 189.641 207.395C195.256 208.518 200.869 209.016 206.609 209.016C215.593 209.016 223.083 207.645 229.196 205.025C234.812 202.778 239.678 198.911 243.172 193.918C246.443 189.009 248.141 183.22 248.038 177.322C248.161 172.866 247.176 168.45 245.17 164.47C242.797 160.225 239.428 156.732 235.31 154.112C229.286 150.329 222.836 147.27 216.094 145.001C213.083 143.755 210.127 142.381 207.233 140.883C205.612 140.01 204.114 138.887 202.991 137.514C202.243 136.514 201.744 135.394 201.744 134.271C201.744 133.148 202.119 131.901 202.741 130.901C203.616 129.654 204.987 128.779 206.609 128.405C208.981 127.783 211.602 127.406 214.096 127.53C218.838 127.53 223.455 128.155 228.073 129.154C232.318 130.026 236.309 131.4 240.053 133.398C240.551 133.646 241.176 133.646 242.299 133.398C242.494 133.253 242.652 133.065 242.761 132.848C242.869 132.631 242.925 132.391 242.924 132.149V111.809C242.924 111.308 242.797 110.81 242.673 110.312C242.423 109.813 241.925 109.313 241.426 109.189C237.984 107.782 234.378 106.817 230.694 106.318C225.57 105.572 220.399 105.199 215.221 105.197Z" fill="#31A8FF"/>
</svg>
