<svg width="324" height="289" viewBox="0 0 324 289" fill="none" xmlns="http://www.w3.org/2000/svg">
<path d="M161.925 98.2353C248.023 98.2353 300.718 128.191 300.718 144.5C300.718 160.808 248.023 190.764 161.925 190.764C75.8271 190.764 23.1321 160.808 23.1321 144.5C23.1321 128.191 75.8271 98.2353 161.925 98.2353ZM161.925 75.1031C72.4961 75.1031 0 106.17 0 144.5C0 182.83 72.4961 213.896 161.925 213.896C251.354 213.896 323.85 182.83 323.85 144.5C323.85 106.17 251.354 75.1031 161.925 75.1031Z" fill="#0288D1"/>
<path d="M161.925 121.367C157.35 121.367 152.878 122.724 149.074 125.266C145.27 127.808 142.305 131.421 140.554 135.647C138.803 139.874 138.345 144.525 139.237 149.012C140.13 153.5 142.333 157.621 145.568 160.857C148.803 164.092 152.925 166.295 157.412 167.187C161.899 168.08 166.551 167.622 170.777 165.871C175.004 164.12 178.617 161.155 181.159 157.351C183.701 153.547 185.057 149.075 185.057 144.5C185.057 138.365 182.62 132.481 178.282 128.143C173.944 123.805 168.06 121.367 161.925 121.367Z" fill="#0288D1"/>
<path d="M97.8273 23.1378C121.156 23.1378 166.495 59.8832 201.991 121.368C245.04 195.935 245.445 256.541 231.323 264.695C229.694 265.54 227.87 265.939 226.037 265.852C202.708 265.852 157.358 229.118 121.862 167.633C78.8127 93.0663 78.4079 32.4601 92.53 24.306C94.1626 23.4593 95.9904 23.0486 97.8273 23.1378ZM97.8157 0.0172415C91.9212 -0.089417 86.1046 1.37571 80.964 4.26199C47.7694 23.427 57.1147 101.752 101.829 179.199C139.812 245.01 191.119 288.995 226.049 288.995C231.941 289.093 237.754 287.62 242.889 284.728C276.084 265.574 266.738 187.249 222.024 109.802C184.041 43.9914 132.734 0.00567627 97.8042 0.00567627L97.8157 0.0172415Z" fill="#0288D1"/>
<path d="M226.035 23.1369C227.868 23.0498 229.691 23.4488 231.32 24.2935C245.442 32.4591 245.038 93.0653 201.989 167.632C166.481 229.117 121.142 265.862 97.8131 265.862C95.9801 265.949 94.1566 265.55 92.5274 264.706C78.4053 256.529 78.8101 195.922 121.859 121.367C157.367 59.8823 202.706 23.1369 226.035 23.1369ZM226.035 0.00473614C191.105 0.00473614 139.81 44.0021 101.815 109.801C57.1237 187.248 47.7667 265.573 80.9613 284.727C86.0997 287.621 91.9165 289.094 97.8131 288.995C132.743 288.995 184.038 244.997 222.033 179.198C266.724 101.751 276.081 23.426 242.886 4.27261C237.748 1.37827 231.931 -0.094871 226.035 0.00473614Z" fill="#0288D1"/>
</svg>
