<svg width="292" height="292" viewBox="0 0 292 292" fill="none" xmlns="http://www.w3.org/2000/svg">
<path d="M135.423 0.136488C134.317 0.253033 130.864 0.662084 127.818 1.02086C115.537 2.42169 101.611 6.11 89.3902 11.2586C45.1601 29.739 11.8716 70.2853 2.6874 116.791C0.525596 127.852 0 133.286 0 146.042C0 162.484 1.63392 173.83 5.96437 188.167C20.1212 235.083 56.9769 271.879 104.013 286.09C118.17 290.366 129.578 292 145.958 292C162.4 292 173.746 290.366 188.083 286.036C234.999 271.879 271.795 235.023 286.007 187.987C290.282 173.83 291.916 162.422 291.916 146.042C291.916 139.079 291.569 131.126 291.157 128.197C286.418 94.385 272.492 65.9525 249.274 42.7258C226.1 19.6772 197.786 5.69867 164.674 0.95916C160.113 0.314734 138.993 -0.274848 135.423 0.136488ZM87.7471 92.2758C90.855 93.2127 92.3084 94.0902 94.4153 96.1949C98.5127 100.354 99.4496 102.632 99.4496 108.889C99.4496 113.576 99.2714 114.451 97.8706 116.906C95.174 121.467 88.9171 125.681 84.589 125.795C81.5428 125.859 81.6685 124.511 85.0003 121.003C89.445 116.38 90.0872 114.627 90.0872 107.719C90.0323 101.053 89.2119 98.7749 86.1132 96.901C83.5355 95.3219 80.7316 95.4385 76.6342 97.3649C65.9852 102.461 54.4609 119.424 49.9613 136.803C43.9901 159.968 54.5774 178.508 72.0112 175.347C77.0981 174.41 86.6936 169.502 90.855 165.635C94.3011 162.484 94.3011 162.422 94.6484 158.505C95.4163 150.308 101.2 142.123 108.931 138.32C112.491 136.561 113.376 136.392 118.17 136.392C122.731 136.392 123.785 136.625 126.008 137.847C133.085 141.892 131.623 151.307 123.963 151.307C119.518 151.307 117.233 149.022 120.455 147.802C123.616 146.632 122.436 142.239 118.76 141.248C114.429 140.132 109.511 143.06 106.413 148.675C102.665 155.462 102.494 163.537 106.056 167.217C109.511 170.903 113.84 167.984 117.178 159.609C118.929 155.343 121.445 153.058 124.374 153.058C126.945 153.058 127.418 154.639 126.301 159.44C124.66 166.867 125.775 168.796 130.398 166.52C131.915 165.814 134.434 164.182 135.951 163.012L138.817 160.727L140.755 150.603C142.862 139.257 143.673 137.731 148.003 136.919C152.162 136.152 153.099 138.204 151.573 144.694L150.75 148.327L153.796 145.219C160.99 137.847 169.827 134.223 172.871 137.267C174.505 138.901 174.327 140.953 171.989 148.201C170.88 151.657 169.354 157.102 168.659 160.199C167.606 164.877 167.542 165.992 168.134 166.753C170.007 168.974 175.736 166.689 180.826 161.716L183.808 158.798L184.164 152.299C184.512 144.81 185.209 142.123 187.199 139.721C189.073 137.5 192.466 135.866 194.279 136.33C196.091 136.803 196.091 138.553 194.457 143.704C192.172 150.781 192.412 167.1 194.752 167.1C195.689 167.1 200.481 162.073 203.527 157.861L205.803 154.753L203.991 152.888C200.83 149.552 200.072 147.39 200.072 141.945C200.072 137.973 200.366 136.508 201.356 134.57C202.999 131.536 205.57 129.314 208.614 128.43C211.827 127.438 215.807 129.072 217.441 131.999C219.084 134.982 218.675 141.65 216.566 146.22L215.049 149.55H217.094C219.905 149.55 221.013 148.853 226.047 144.113C228.68 141.597 231.724 139.429 234 138.375C242.953 134.17 253.488 136.33 255.236 142.765C256.699 147.916 253.488 151.54 247.864 151.129C243.829 150.836 243.07 149.781 245.41 147.802C249.622 144.282 245.41 139.785 239.384 141.419C236.107 142.301 232.421 145.98 230.494 150.256C226.628 158.798 228.68 168.857 234.233 168.857C236.457 168.857 240.383 164.468 241.9 160.199C243.712 155.281 247.515 152.185 250.38 153.297C251.962 153.88 252.078 155.459 251.086 160.432C249.971 165.878 249.8 170.967 250.675 173.304C251.025 174.177 252.078 175.82 253.077 176.929C254.942 179.033 255.006 179.794 253.424 180.793C252.665 181.319 251.665 181.088 249.213 179.742C245.819 177.982 242.892 174.822 241.838 171.84L241.196 170.089L238.856 171.84C237.508 172.777 235.403 173.83 234.178 174.177C229.322 175.464 223.351 172.134 220.549 166.52C219.432 164.349 219.084 157.978 219.905 155.521C220.371 154.173 220.371 154.173 218.495 155.11C217.505 155.638 215.398 156.218 213.764 156.396C211.068 156.693 210.657 156.986 207.972 160.377C204.169 165.107 197.437 171.492 194.688 172.84C188.842 175.759 186.913 174.938 185.387 168.91L184.333 164.877L181.815 167.1C178.602 169.911 172.167 173.304 168.479 174.125C164.971 174.883 161.223 173.768 159.704 171.428C157.43 167.92 158.188 160.494 161.81 150.487C164.498 143.06 162.571 142.946 155.787 150.023C150.752 155.343 148.591 159.145 147.19 165.055C145.727 171.197 143.968 173.419 139.996 174.356C137.594 174.883 136.477 173.419 136.952 170.206L137.299 167.626L135.076 169.152C131.915 171.314 127.935 173.304 125.186 174.063C122.436 174.822 118.812 174.008 117.937 172.482C116.358 169.797 116.358 169.797 113.904 171.723C108.574 176.053 100.969 174.822 97.1119 169.09L95.8779 167.278L92.0227 170.848C80.9007 181.026 66.9838 185.587 56.6844 182.427C43.5788 178.455 36.3301 167.217 36.4467 151.015C36.5015 134.751 43.6953 117.612 55.8092 104.917C62.6556 97.7762 69.0907 93.5623 75.6447 91.9833C80.3751 90.8132 83.2498 90.8727 87.7471 92.2758Z" fill="#00C4CC"/>
<path d="M206.33 133.876C205.043 135.16 205.517 140.311 207.153 143.588C207.973 145.283 208.848 146.632 209.141 146.632C209.374 146.632 209.9 145.283 210.311 143.64C211.773 137.562 209.141 131.062 206.33 133.876Z" fill="#00C4CC"/>
</svg>
