<svg width="210" height="289" viewBox="0 0 210 289" fill="none" xmlns="http://www.w3.org/2000/svg">
<path d="M88.3453 0C83.6972 0.228792 73.2812 3.27533 63.4552 7.91138C53.6292 12.6076 18.9492 33.9334 18.2749 86.6157C19.1419 136.528 64.5992 221.374 95.3054 248.636C95.3054 248.636 45.4409 164.923 41.8524 91.9381C38.2159 18.9656 88.3453 0 88.3453 0ZM120.605 0C120.605 0 170.686 18.9656 167.098 91.9381C163.497 164.923 113.645 248.636 113.645 248.636C144.315 221.374 189.796 136.528 190.663 86.6157C189.977 33.9334 155.309 12.6076 145.483 7.91138C135.657 3.27533 125.241 0.228792 120.605 0ZM103.987 0.228792C101.646 0.205821 99.3396 0.804148 97.3043 1.96279C78.8685 11.9213 67.3687 47.9499 70.5959 104.281C72.8236 143.32 82.7459 192.077 99.7608 248.636H108.19C125.205 192.077 135.163 143.368 137.391 104.329C140.618 48.0101 129.106 11.9213 110.671 1.96279C108.635 0.804148 106.329 0.205821 103.987 0.228792ZM44.5859 12.8364C44.5859 12.8364 -9.28852 35.0292 1.40448 99.0427C12.0493 163.104 68.6933 231.441 85.5276 245.951C91.5845 251.454 15.9629 167.102 8.62948 93.0339C5.12536 65.0611 13.3257 34.0298 44.5859 12.8364ZM164.593 12.8364C195.841 34.0298 204.042 65.0611 200.538 93.0339C193.216 167.102 117.595 251.454 123.639 245.951C140.474 231.441 197.13 163.104 207.775 99.0427C218.468 35.0292 164.593 12.8364 164.593 12.8364ZM82.5292 263.062L88.2972 289H119.593L125.47 263.062H82.5292Z" fill="#22BE31"/>
</svg>
