<svg width="289" height="289" viewBox="0 0 289 289" fill="none" xmlns="http://www.w3.org/2000/svg">
<path d="M0 0H289V289H0V0Z" fill="#F5DE19"/>
<path d="M194.136 225.781C196.602 230.78 200.429 234.981 205.176 237.903C209.923 240.824 215.398 242.347 220.972 242.296C232.222 242.296 239.416 236.67 239.416 228.878C239.416 219.588 232.026 216.265 219.64 210.846L212.849 207.936C193.238 199.586 180.233 189.13 180.233 167.021C180.233 146.657 195.715 131.144 220.001 131.144C227.863 130.578 235.718 132.338 242.586 136.205C249.454 140.072 255.032 145.876 258.624 152.891L237.393 166.464C236.009 162.986 233.601 160.01 230.488 157.931C227.375 155.852 223.703 154.767 219.96 154.822C218.327 154.658 216.677 154.837 215.117 155.346C213.557 155.855 212.119 156.684 210.897 157.779C209.674 158.874 208.693 160.212 208.016 161.707C207.34 163.203 206.982 164.823 206.965 166.464C206.965 174.608 212.013 177.911 223.666 182.978L230.457 185.889C253.536 195.787 266.582 205.871 266.582 228.547C266.582 252.999 247.374 266.396 221.581 266.396C211.532 267.03 201.514 264.745 192.733 259.818C183.952 254.89 176.783 247.529 172.089 238.621L194.136 225.781ZM98.1982 228.135C102.461 235.7 106.342 242.1 115.672 242.1C124.59 242.1 130.226 238.611 130.226 225.038V132.692H157.381V225.399C157.381 253.515 140.867 266.314 116.828 266.314C108.331 266.778 99.8925 264.66 92.6214 260.239C85.3503 255.818 79.5872 249.3 76.0897 241.542L98.1982 228.135Z" fill="black"/>
</svg>
